<svg width="14" height="14" viewBox="0 0 14 14" fill="none" xmlns="http://www.w3.org/2000/svg">
<path d="M3.56639 1.22473H4.97939V1.76373H3.56639V1.22473ZM8.27639 1.22473H9.68914V1.76373H8.27639V1.22473Z" fill="black"/>
<path d="M11.9266 13.5202H1.32889C0.970959 13.514 0.630105 13.3661 0.381033 13.1089C0.131961 12.8518 -0.00500959 12.5064 0.000140129 12.1485V2.59648C-0.00494282 2.23857 0.132058 1.89324 0.381123 1.63617C0.630187 1.37909 0.971003 1.23122 1.32889 1.22498H2.62514V1.76423H1.32889C1.11386 1.77025 0.909986 1.86124 0.761915 2.01728C0.613843 2.17332 0.533646 2.38168 0.53889 2.59673V12.1485C0.533646 12.3635 0.613843 12.5719 0.761915 12.7279C0.909986 12.884 1.11386 12.975 1.32889 12.981H11.9266C12.1417 12.975 12.3456 12.884 12.4937 12.7279C12.6418 12.5719 12.7221 12.3635 12.7169 12.1485V2.59648C12.7221 2.3814 12.6418 2.17304 12.4937 2.01701C12.3456 1.86098 12.1417 1.77 11.9266 1.76398H10.6314V1.22498H11.9266C12.2847 1.23109 12.6256 1.37893 12.8748 1.63608C13.124 1.89323 13.261 2.23869 13.2559 2.59673V12.1485C13.261 12.5065 13.124 12.852 12.8748 13.1091C12.6256 13.3663 12.2847 13.5141 11.9266 13.5202Z" fill="black"/>
<path d="M5.92139 1.22475H7.33439V1.76375H5.92139V1.22475ZM0.26939 3.919H12.9864V4.458H0.26939V3.919ZM3.56639 3.2335H2.62514C2.58973 3.2335 2.55466 3.22652 2.52195 3.21296C2.48924 3.1994 2.45952 3.17953 2.43449 3.15448C2.40946 3.12943 2.38961 3.09969 2.37608 3.06696C2.36255 3.03423 2.35561 2.99916 2.35564 2.96375V0.26975C2.35561 0.234338 2.36255 0.199266 2.37608 0.16654C2.38961 0.133814 2.40946 0.104075 2.43449 0.0790231C2.45952 0.0539712 2.48924 0.0340976 2.52195 0.0205383C2.55466 0.00697906 2.58973 -1.52365e-08 2.62514 0H3.56714C3.60253 0 3.63758 0.00697085 3.67027 0.0205145C3.70297 0.0340581 3.73268 0.0539093 3.75771 0.0789347C3.78273 0.10396 3.80258 0.13367 3.81613 0.166367C3.82967 0.199064 3.83664 0.234109 3.83664 0.2695V2.96375C3.83664 2.99922 3.82965 3.03433 3.81606 3.06709C3.80247 3.09985 3.78256 3.12961 3.75746 3.15467C3.73235 3.17972 3.70256 3.19958 3.66977 3.21311C3.63699 3.22664 3.60186 3.23357 3.56639 3.2335ZM2.89389 2.69425H3.29689V0.53925H2.89389V2.69425Z" fill="black"/>
<path d="M5.92139 3.2335H4.97939C4.94398 3.2335 4.90891 3.22652 4.8762 3.21296C4.84349 3.1994 4.81377 3.17953 4.78874 3.15448C4.76371 3.12943 4.74386 3.09969 4.73033 3.06696C4.7168 3.03423 4.70986 2.99916 4.70989 2.96375V0.26975C4.70986 0.234338 4.7168 0.199266 4.73033 0.16654C4.74386 0.133814 4.76371 0.104075 4.78874 0.0790231C4.81377 0.0539712 4.84349 0.0340976 4.8762 0.0205383C4.90891 0.00697906 4.94398 -1.52365e-08 4.97939 0H5.92139C5.95678 0 5.99183 0.00697085 6.02452 0.0205145C6.05722 0.0340581 6.08693 0.0539093 6.11196 0.0789347C6.13698 0.10396 6.15683 0.13367 6.17038 0.166367C6.18392 0.199064 6.19089 0.234109 6.19089 0.2695V2.96375C6.19089 3.03525 6.16251 3.10382 6.11197 3.1544C6.06144 3.20498 5.99289 3.23343 5.92139 3.2335ZM5.25014 2.69425H5.65289V0.53925H5.25014V2.69425ZM8.27514 3.2335H7.33439C7.29898 3.2335 7.26391 3.22652 7.2312 3.21296C7.19849 3.1994 7.16877 3.17953 7.14374 3.15448C7.11871 3.12943 7.09886 3.09969 7.08533 3.06696C7.07181 3.03423 7.06486 2.99916 7.06489 2.96375V0.26975C7.06486 0.234338 7.07181 0.199266 7.08533 0.16654C7.09886 0.133814 7.11871 0.104075 7.14374 0.0790231C7.16877 0.0539712 7.19849 0.0340976 7.2312 0.0205383C7.26391 0.00697906 7.29898 -1.52365e-08 7.33439 0H8.27514C8.34664 -3.07062e-08 8.41521 0.0283857 8.46579 0.0789195C8.51638 0.129453 8.54483 0.198001 8.54489 0.2695V2.96375C8.54489 2.99917 8.53791 3.03425 8.52436 3.06698C8.5108 3.09971 8.49093 3.12944 8.46588 3.15449C8.44083 3.17954 8.4111 3.19941 8.37837 3.21297C8.34564 3.22652 8.31056 3.2335 8.27514 3.2335ZM7.60264 2.69425H8.00564V0.53925H7.60389L7.60264 2.69425ZM10.6314 3.2335H9.68939C9.65398 3.2335 9.61891 3.22652 9.5862 3.21296C9.55349 3.1994 9.52377 3.17953 9.49874 3.15448C9.47371 3.12943 9.45386 3.09969 9.44033 3.06696C9.4268 3.03423 9.41986 2.99916 9.41989 2.96375V0.26975C9.41986 0.234338 9.4268 0.199266 9.44033 0.16654C9.45386 0.133814 9.47371 0.104075 9.49874 0.0790231C9.52377 0.0539712 9.55349 0.0340976 9.5862 0.0205383C9.61891 0.00697906 9.65398 -1.52365e-08 9.68939 0H10.6314C10.7028 0.000264575 10.7711 0.0288013 10.8215 0.0793606C10.8719 0.12992 10.9001 0.198381 10.9001 0.26975V2.96375C10.9001 3.03512 10.8719 3.10358 10.8215 3.15414C10.7711 3.2047 10.7028 3.23324 10.6314 3.2335ZM9.95889 2.69425H10.3619V0.53925H9.95889V2.69425ZM3.09539 6.90725H1.44689C1.37542 6.90725 1.30687 6.87886 1.25633 6.82832C1.20579 6.77777 1.17739 6.70923 1.17739 6.63775V5.16825C1.17772 5.09699 1.20626 5.02876 1.25677 4.97849C1.30727 4.92822 1.37563 4.9 1.44689 4.9H3.09539C3.16687 4.9 3.23542 4.92839 3.28596 4.97893C3.3365 5.02948 3.36489 5.09802 3.36489 5.1695V6.639C3.36456 6.71026 3.33602 6.77849 3.28552 6.82876C3.23501 6.87903 3.16665 6.90725 3.09539 6.90725ZM1.71639 6.36825H2.82514V5.43775H1.71639V6.36825ZM3.09539 9.3565H1.44689C1.37542 9.3565 1.30687 9.32811 1.25633 9.27757C1.20579 9.22702 1.17739 9.15848 1.17739 9.087V7.6175C1.17739 7.54602 1.20579 7.47748 1.25633 7.42694C1.30687 7.37639 1.37542 7.348 1.44689 7.348H3.09539C3.16687 7.348 3.23542 7.37639 3.28596 7.42694C3.3365 7.47748 3.36489 7.54602 3.36489 7.6175V9.087C3.36489 9.15848 3.3365 9.22702 3.28596 9.27757C3.23542 9.32811 3.16687 9.3565 3.09539 9.3565ZM1.71639 8.8175H2.82514V7.887H1.71639V8.8175ZM3.09539 11.8057H1.44689C1.37542 11.8057 1.30687 11.7774 1.25633 11.7268C1.20579 11.6763 1.17739 11.6077 1.17739 11.5363V10.0667C1.17736 10.0313 1.1843 9.99627 1.19783 9.96354C1.21136 9.93081 1.23121 9.90108 1.25624 9.87602C1.28127 9.85097 1.31099 9.8311 1.3437 9.81754C1.37641 9.80398 1.41148 9.797 1.44689 9.797H3.09539C3.1308 9.797 3.16587 9.80398 3.19858 9.81754C3.2313 9.8311 3.26102 9.85097 3.28605 9.87602C3.31107 9.90108 3.33092 9.93081 3.34445 9.96354C3.35798 9.99627 3.36492 10.0313 3.36489 10.0667V11.5363C3.36489 11.6077 3.3365 11.6763 3.28596 11.7268C3.23542 11.7774 3.16687 11.8057 3.09539 11.8057ZM1.71639 11.2665H2.82514V10.3363H1.71639V11.2665ZM5.92139 6.90725H4.27289C4.20142 6.90725 4.13287 6.87886 4.08233 6.82832C4.03178 6.77777 4.00339 6.70923 4.00339 6.63775V5.16825C4.00372 5.09699 4.03226 5.02876 4.08277 4.97849C4.13327 4.92822 4.20163 4.9 4.27289 4.9H5.92139C5.99287 4.9 6.06142 4.92839 6.11196 4.97893C6.1625 5.02948 6.19089 5.09802 6.19089 5.1695V6.639C6.19056 6.71026 6.16202 6.77849 6.11152 6.82876C6.06101 6.87903 5.99265 6.90725 5.92139 6.90725ZM4.54239 6.36825H5.65164V5.43775H4.54239V6.36825ZM5.92139 9.3565H4.27289C4.20142 9.3565 4.13287 9.32811 4.08233 9.27757C4.03178 9.22702 4.00339 9.15848 4.00339 9.087V7.6175C4.00339 7.54602 4.03178 7.47748 4.08233 7.42694C4.13287 7.37639 4.20142 7.348 4.27289 7.348H5.92139C5.99287 7.348 6.06142 7.37639 6.11196 7.42694C6.1625 7.47748 6.19089 7.54602 6.19089 7.6175V9.087C6.19089 9.15848 6.1625 9.22702 6.11196 9.27757C6.06142 9.32811 5.99287 9.3565 5.92139 9.3565ZM4.54239 8.8175H5.65164V7.887H4.54239V8.8175ZM5.92139 11.8057H4.27289C4.20142 11.8057 4.13287 11.7774 4.08233 11.7268C4.03178 11.6763 4.00339 11.6077 4.00339 11.5363V10.0667C4.00336 10.0313 4.0103 9.99627 4.02383 9.96354C4.03736 9.93081 4.05721 9.90108 4.08224 9.87602C4.10727 9.85097 4.13699 9.8311 4.1697 9.81754C4.20241 9.80398 4.23748 9.797 4.27289 9.797H5.92139C5.99289 9.79707 6.06144 9.82552 6.11197 9.8761C6.16251 9.92668 6.19089 9.99525 6.19089 10.0667V11.5363C6.19089 11.6077 6.1625 11.6763 6.11196 11.7268C6.06142 11.7774 5.99287 11.8057 5.92139 11.8057ZM4.54239 11.2665H5.65164V10.3363H4.54239V11.2665ZM8.74739 6.90725H7.10014C7.02864 6.90725 6.96007 6.87886 6.90949 6.82833C6.85891 6.7778 6.83046 6.70925 6.83039 6.63775V5.16825C6.83079 5.09697 6.85938 5.02874 6.90993 4.97848C6.96047 4.92821 7.02886 4.9 7.10014 4.9H8.74839C8.81987 4.9 8.88842 4.92839 8.93896 4.97893C8.9895 5.02948 9.01789 5.09802 9.01789 5.1695V6.639C9.01756 6.71043 8.98888 6.77881 8.93816 6.82911C8.88744 6.87941 8.81882 6.90752 8.74739 6.90725ZM7.36864 6.36825H8.47789V5.43775H7.36864V6.36825ZM8.74739 9.3565H7.10014C7.02864 9.3565 6.96007 9.32811 6.90949 9.27758C6.85891 9.22705 6.83046 9.1585 6.83039 9.087V7.6175C6.83046 7.546 6.85891 7.47745 6.90949 7.42692C6.96007 7.37639 7.02864 7.348 7.10014 7.348H8.74839C8.81987 7.348 8.88842 7.37639 8.93896 7.42694C8.9895 7.47748 9.01789 7.54602 9.01789 7.6175V9.087C9.01789 9.12248 9.01089 9.1576 8.99728 9.19036C8.98368 9.22313 8.96373 9.25288 8.9386 9.27792C8.91347 9.30296 8.88364 9.32279 8.85083 9.33627C8.81802 9.34976 8.78287 9.35663 8.74739 9.3565ZM7.36864 8.8175H8.47789V7.887H7.36864V8.8175ZM8.74739 11.8057H7.10014C7.02864 11.8057 6.96007 11.7774 6.90949 11.7268C6.85891 11.6763 6.83046 11.6077 6.83039 11.5363V10.0667C6.83039 9.99521 6.85881 9.9266 6.9094 9.87601C6.95999 9.82542 7.0286 9.797 7.10014 9.797H8.74839C8.7838 9.797 8.81887 9.80398 8.85158 9.81754C8.8843 9.8311 8.91402 9.85097 8.93904 9.87602C8.96407 9.90108 8.98392 9.93081 8.99745 9.96354C9.01098 9.99627 9.01792 10.0313 9.01789 10.0667V11.5363C9.01789 11.5717 9.01089 11.6069 8.99728 11.6396C8.98368 11.6724 8.96373 11.7021 8.9386 11.7272C8.91347 11.7522 8.88364 11.772 8.85083 11.7855C8.81802 11.799 8.78287 11.8059 8.74739 11.8057ZM7.36864 11.2665H8.47789V10.3363H7.36864V11.2665ZM11.5734 6.90725H9.92514C9.85367 6.90725 9.78512 6.87886 9.73458 6.82832C9.68404 6.77777 9.65564 6.70923 9.65564 6.63775V5.16825C9.65597 5.09699 9.68451 5.02876 9.73502 4.97849C9.78552 4.92822 9.85388 4.9 9.92514 4.9H11.5736C11.6451 4.9 11.7137 4.92839 11.7642 4.97893C11.8147 5.02948 11.8431 5.09802 11.8431 5.1695V6.639C11.8428 6.7103 11.8142 6.77857 11.7637 6.82885C11.7131 6.87912 11.6447 6.90732 11.5734 6.90725ZM10.1944 6.36825H11.3039V5.43775H10.1944V6.36825ZM11.5734 9.3565H9.92514C9.85367 9.3565 9.78512 9.32811 9.73458 9.27757C9.68404 9.22702 9.65564 9.15848 9.65564 9.087V7.6175C9.65564 7.54602 9.68404 7.47748 9.73458 7.42694C9.78512 7.37639 9.85367 7.348 9.92514 7.348H11.5736C11.6451 7.348 11.7137 7.37639 11.7642 7.42694C11.8147 7.47748 11.8431 7.54602 11.8431 7.6175V9.087C11.8431 9.12241 11.8362 9.15748 11.8226 9.19019C11.809 9.22291 11.7892 9.25263 11.7641 9.27765C11.7391 9.30268 11.7093 9.32253 11.6766 9.33606C11.6439 9.34959 11.6088 9.35653 11.5734 9.3565ZM10.1944 8.8175H11.3039V7.887H10.1944V8.8175ZM11.5734 11.8057H9.92514C9.85367 11.8057 9.78512 11.7774 9.73458 11.7268C9.68404 11.6763 9.65564 11.6077 9.65564 11.5363V10.0667C9.65564 9.99525 9.68403 9.92668 9.73456 9.8761C9.7851 9.82552 9.85364 9.79707 9.92514 9.797H11.5736C11.6091 9.797 11.6441 9.80398 11.6768 9.81754C11.7095 9.8311 11.7393 9.85097 11.7643 9.87602C11.7893 9.90108 11.8092 9.93081 11.8227 9.96354C11.8362 9.99627 11.8432 10.0313 11.8431 10.0667V11.5363C11.8431 11.5717 11.8362 11.6067 11.8226 11.6394C11.809 11.6722 11.7892 11.7019 11.7641 11.7269C11.7391 11.7519 11.7093 11.7718 11.6766 11.7853C11.6439 11.7988 11.6088 11.8058 11.5734 11.8057ZM10.1944 11.2665H11.3039V10.3363H10.1944V11.2665Z" fill="black"/>
</svg>
