<svg width="10" height="14" viewBox="0 0 10 14" fill="none" xmlns="http://www.w3.org/2000/svg">
<path d="M4.38976 11.6394C4.45596 11.6988 4.54177 11.7316 4.63072 11.7316C4.71967 11.7316 4.80548 11.6988 4.87168 11.6394C5.05072 11.4781 9.2616 7.65568 9.2616 4.63088C9.26144 2.07728 7.184 0 4.63072 0C2.07744 0 0 2.07728 0 4.63072C0 7.65568 4.21072 11.4781 4.38976 11.6394ZM4.63072 0.72C6.78704 0.72 8.54144 2.47424 8.54144 4.63072C8.54144 6.9512 5.51664 10.027 4.63072 10.8778C3.74432 10.0272 0.72 6.95344 0.72 4.63072C0.72 2.47424 2.4744 0.72 4.63072 0.72Z" fill="black"/>
<path d="M6.43072 4.63075C6.43072 3.63811 5.62304 2.83075 4.63072 2.83075C3.6384 2.83075 2.83072 3.63811 2.83072 4.63075C2.83072 5.62339 3.6384 6.43075 4.63072 6.43075C5.62304 6.43075 6.43072 5.62339 6.43072 4.63075ZM3.55072 4.63075C3.55072 4.03523 4.03536 3.55075 4.63072 3.55075C5.22608 3.55075 5.71072 4.03523 5.71072 4.63075C5.71072 5.22627 5.22608 5.71075 4.63072 5.71075C4.03536 5.71075 3.55072 5.22643 3.55072 4.63075ZM7.6152 9.76499C7.16656 9.60451 6.92432 10.2807 7.37056 10.4423C8.09296 10.7034 8.54144 11.0594 8.54144 11.3715C8.54144 11.9346 7.0536 12.7199 4.63072 12.7199C2.20784 12.7199 0.72 11.9344 0.72 11.3715C0.72 11.0594 1.16864 10.7034 1.89088 10.4423C2.33616 10.281 2.09616 9.60499 1.64624 9.76499C0.58448 10.1488 0 10.7194 0 11.3717C0 12.7151 2.38592 13.44 4.63072 13.44C6.87552 13.44 9.26144 12.7151 9.26144 11.3717C9.26144 10.7194 8.67696 10.149 7.6152 9.76499Z" fill="black"/>
</svg>
