<svg width="21" height="21" viewBox="0 0 21 21" fill="none" xmlns="http://www.w3.org/2000/svg">
    <path
        d="M19.25 2.1H17.5V1.4C17.5 1.0287 17.3525 0.672601 17.0899 0.410051C16.8274 0.1475 16.4713 0 16.1 0C15.7287 0 15.3726 0.1475 15.1101 0.410051C14.8475 0.672601 14.7 1.0287 14.7 1.4V2.1H11.9V1.4C11.9 1.0287 11.7525 0.672601 11.4899 0.410051C11.2274 0.1475 10.8713 0 10.5 0C10.1287 0 9.7726 0.1475 9.51005 0.410051C9.2475 0.672601 9.1 1.0287 9.1 1.4V2.1H6.3V1.4C6.3 1.0287 6.1525 0.672601 5.88995 0.410051C5.6274 0.1475 5.2713 0 4.9 0C4.5287 0 4.1726 0.1475 3.91005 0.410051C3.6475 0.672601 3.5 1.0287 3.5 1.4V2.1H1.75C1.28587 2.1 0.840752 2.28437 0.512563 2.61256C0.184374 2.94075 0 3.38587 0 3.85V17.85C0 18.3141 0.184374 18.7592 0.512563 19.0874C0.840752 19.4156 1.28587 19.6 1.75 19.6H11.55C11.6428 19.6 11.7318 19.5631 11.7975 19.4975C11.8631 19.4318 11.9 19.3428 11.9 19.25C11.9 19.1572 11.8631 19.0681 11.7975 19.0025C11.7318 18.9369 11.6428 18.9 11.55 18.9H1.75C1.47178 18.8992 1.20519 18.7883 1.00846 18.5915C0.811722 18.3948 0.700831 18.1282 0.7 17.85V7H20.3V12.95C20.3 13.0428 20.3369 13.1318 20.4025 13.1975C20.4681 13.2631 20.5572 13.3 20.65 13.3C20.7428 13.3 20.8318 13.2631 20.8975 13.1975C20.9631 13.1318 21 13.0428 21 12.95V3.85C21 3.38587 20.8156 2.94075 20.4874 2.61256C20.1592 2.28437 19.7141 2.1 19.25 2.1ZM15.4 1.4C15.4 1.21435 15.4737 1.0363 15.605 0.905025C15.7363 0.77375 15.9143 0.7 16.1 0.7C16.2857 0.7 16.4637 0.77375 16.595 0.905025C16.7263 1.0363 16.8 1.21435 16.8 1.4V3.5C16.8 3.68565 16.7263 3.8637 16.595 3.99497C16.4637 4.12625 16.2857 4.2 16.1 4.2C15.9143 4.2 15.7363 4.12625 15.605 3.99497C15.4737 3.8637 15.4 3.68565 15.4 3.5V1.4ZM9.8 1.4C9.8 1.21435 9.87375 1.0363 10.005 0.905025C10.1363 0.77375 10.3143 0.7 10.5 0.7C10.6857 0.7 10.8637 0.77375 10.995 0.905025C11.1263 1.0363 11.2 1.21435 11.2 1.4V3.5C11.2 3.68565 11.1263 3.8637 10.995 3.99497C10.8637 4.12625 10.6857 4.2 10.5 4.2C10.3143 4.2 10.1363 4.12625 10.005 3.99497C9.87375 3.8637 9.8 3.68565 9.8 3.5V1.4ZM4.2 1.4C4.2 1.21435 4.27375 1.0363 4.40503 0.905025C4.5363 0.77375 4.71435 0.7 4.9 0.7C5.08565 0.7 5.2637 0.77375 5.39497 0.905025C5.52625 1.0363 5.6 1.21435 5.6 1.4V3.5C5.6 3.68565 5.52625 3.8637 5.39497 3.99497C5.2637 4.12625 5.08565 4.2 4.9 4.2C4.71435 4.2 4.5363 4.12625 4.40503 3.99497C4.27375 3.8637 4.2 3.68565 4.2 3.5V1.4ZM20.3 6.3H0.7V3.85C0.700831 3.57178 0.811722 3.30519 1.00846 3.10846C1.20519 2.91172 1.47178 2.80083 1.75 2.8H3.5V3.5C3.5 3.8713 3.6475 4.2274 3.91005 4.48995C4.1726 4.7525 4.5287 4.9 4.9 4.9C5.2713 4.9 5.6274 4.7525 5.88995 4.48995C6.1525 4.2274 6.3 3.8713 6.3 3.5V2.8H9.1V3.5C9.1 3.8713 9.2475 4.2274 9.51005 4.48995C9.7726 4.7525 10.1287 4.9 10.5 4.9C10.8713 4.9 11.2274 4.7525 11.4899 4.48995C11.7525 4.2274 11.9 3.8713 11.9 3.5V2.8H14.7V3.5C14.7 3.8713 14.8475 4.2274 15.1101 4.48995C15.3726 4.7525 15.7287 4.9 16.1 4.9C16.4713 4.9 16.8274 4.7525 17.0899 4.48995C17.3525 4.2274 17.5 3.8713 17.5 3.5V2.8H19.25C19.5282 2.80083 19.7948 2.91172 19.9915 3.10846C20.1883 3.30519 20.2992 3.57178 20.3 3.85V6.3Z"
        fill="black" />
    <path
        d="M9.8 9.45C9.8 9.26435 9.72625 9.0863 9.59498 8.95503C9.4637 8.82375 9.28565 8.75 9.1 8.75H7.7C7.51435 8.75 7.3363 8.82375 7.20503 8.95503C7.07375 9.0863 7 9.26435 7 9.45V10.5C7 10.6857 7.07375 10.8637 7.20503 10.995C7.3363 11.1263 7.51435 11.2 7.7 11.2H9.1C9.28565 11.2 9.4637 11.1263 9.59498 10.995C9.72625 10.8637 9.8 10.6857 9.8 10.5V9.45ZM7.7 10.5V9.45H9.1V10.5H7.7ZM5.6 9.45C5.6 9.26435 5.52625 9.0863 5.39498 8.95503C5.2637 8.82375 5.08565 8.75 4.9 8.75H3.5C3.31435 8.75 3.1363 8.82375 3.00503 8.95503C2.87375 9.0863 2.8 9.26435 2.8 9.45V10.5C2.8 10.6857 2.87375 10.8637 3.00503 10.995C3.1363 11.1263 3.31435 11.2 3.5 11.2H4.9C5.08565 11.2 5.2637 11.1263 5.39498 10.995C5.52625 10.8637 5.6 10.6857 5.6 10.5V9.45ZM3.5 10.5V9.45H4.9V10.5H3.5ZM17.5 11.2C17.6857 11.2 17.8637 11.1263 17.995 10.995C18.1263 10.8637 18.2 10.6857 18.2 10.5V9.45C18.2 9.26435 18.1263 9.0863 17.995 8.95503C17.8637 8.82375 17.6857 8.75 17.5 8.75H16.1C15.9144 8.75 15.7363 8.82375 15.605 8.95503C15.4738 9.0863 15.4 9.26435 15.4 9.45V10.5C15.4 10.6857 15.4738 10.8637 15.605 10.995C15.7363 11.1263 15.9144 11.2 16.1 11.2H17.5ZM16.1 9.45H17.5V10.5H16.1V9.45ZM9.8 12.6C9.8 12.4143 9.72625 12.2363 9.59498 12.105C9.4637 11.9737 9.28565 11.9 9.1 11.9H7.7C7.51435 11.9 7.3363 11.9737 7.20503 12.105C7.07375 12.2363 7 12.4143 7 12.6V13.65C7 13.8357 7.07375 14.0137 7.20503 14.145C7.3363 14.2763 7.51435 14.35 7.7 14.35H9.1C9.28565 14.35 9.4637 14.2763 9.59498 14.145C9.72625 14.0137 9.8 13.8357 9.8 13.65V12.6ZM7.7 13.65V12.6H9.1V13.65H7.7ZM5.6 12.6C5.6 12.4143 5.52625 12.2363 5.39498 12.105C5.2637 11.9737 5.08565 11.9 4.9 11.9H3.5C3.31435 11.9 3.1363 11.9737 3.00503 12.105C2.87375 12.2363 2.8 12.4143 2.8 12.6V13.65C2.8 13.8357 2.87375 14.0137 3.00503 14.145C3.1363 14.2763 3.31435 14.35 3.5 14.35H4.9C5.08565 14.35 5.2637 14.2763 5.39498 14.145C5.52625 14.0137 5.6 13.8357 5.6 13.65V12.6ZM3.5 13.65V12.6H4.9V13.65H3.5ZM9.1 15.05H7.7C7.51435 15.05 7.3363 15.1237 7.20503 15.255C7.07375 15.3863 7 15.5643 7 15.75V16.8C7 16.9857 7.07375 17.1637 7.20503 17.295C7.3363 17.4263 7.51435 17.5 7.7 17.5H9.1C9.28565 17.5 9.4637 17.4263 9.59498 17.295C9.72625 17.1637 9.8 16.9857 9.8 16.8V15.75C9.8 15.5643 9.72625 15.3863 9.59498 15.255C9.4637 15.1237 9.28565 15.05 9.1 15.05ZM7.7 16.8V15.75H9.1V16.8H7.7ZM11.9 11.2H13.3C13.4857 11.2 13.6637 11.1263 13.795 10.995C13.9263 10.8637 14 10.6857 14 10.5V9.45C14 9.26435 13.9263 9.0863 13.795 8.95503C13.6637 8.82375 13.4857 8.75 13.3 8.75H11.9C11.7144 8.75 11.5363 8.82375 11.405 8.95503C11.2738 9.0863 11.2 9.26435 11.2 9.45V10.5C11.2 10.6857 11.2738 10.8637 11.405 10.995C11.5363 11.1263 11.7144 11.2 11.9 11.2ZM11.9 9.45H13.3V10.5H11.9V9.45ZM11.2 13.65C11.2 13.8357 11.2738 14.0137 11.405 14.145C11.5363 14.2763 11.7144 14.35 11.9 14.35C11.9928 14.35 12.0819 14.3131 12.1475 14.2475C12.2131 14.1819 12.25 14.0928 12.25 14C12.25 13.9072 12.2131 13.8182 12.1475 13.7525C12.0819 13.6869 11.9928 13.65 11.9 13.65V12.6H13.3C13.3928 12.6 13.4819 12.5631 13.5475 12.4975C13.6131 12.4319 13.65 12.3428 13.65 12.25C13.65 12.1572 13.6131 12.0682 13.5475 12.0025C13.4819 11.9369 13.3928 11.9 13.3 11.9H11.9C11.7144 11.9 11.5363 11.9737 11.405 12.105C11.2738 12.2363 11.2 12.4143 11.2 12.6V13.65ZM4.9 15.05H3.5C3.31435 15.05 3.1363 15.1237 3.00503 15.255C2.87375 15.3863 2.8 15.5643 2.8 15.75V16.8C2.8 16.9857 2.87375 17.1637 3.00503 17.295C3.1363 17.4263 3.31435 17.5 3.5 17.5H4.9C5.08565 17.5 5.2637 17.4263 5.39498 17.295C5.52625 17.1637 5.6 16.9857 5.6 16.8V15.75C5.6 15.5643 5.52625 15.3863 5.39498 15.255C5.2637 15.1237 5.08565 15.05 4.9 15.05ZM3.5 16.8V15.75H4.9V16.8H3.5Z"
        fill="black" />
    <path
        d="M16.45 11.9C15.5501 11.9 14.6704 12.1668 13.9222 12.6668C13.1739 13.1668 12.5907 13.8774 12.2463 14.7088C11.902 15.5402 11.8119 16.455 11.9874 17.3377C12.163 18.2203 12.5963 19.031 13.2327 19.6673C13.869 20.3037 14.6797 20.737 15.5623 20.9126C16.4449 21.0881 17.3598 20.998 18.1912 20.6536C19.0226 20.3093 19.7332 19.7261 20.2332 18.9778C20.7331 18.2296 21 17.3499 21 16.45C20.9986 15.2437 20.5188 14.0872 19.6658 13.2342C18.8128 12.3812 17.6563 11.9014 16.45 11.9ZM16.45 20.3C15.6885 20.3 14.9442 20.0742 14.3111 19.6512C13.6779 19.2281 13.1845 18.6268 12.8931 17.9233C12.6017 17.2198 12.5254 16.4457 12.674 15.6989C12.8225 14.9521 13.1892 14.2661 13.7276 13.7276C14.2661 13.1892 14.9521 12.8225 15.6989 12.674C16.4457 12.5254 17.2198 12.6017 17.9233 12.8931C18.6268 13.1845 19.2281 13.6779 19.6512 14.311C20.0742 14.9442 20.3 15.6885 20.3 16.45C20.2988 17.4707 19.8928 18.4493 19.171 19.171C18.4493 19.8928 17.4707 20.2988 16.45 20.3Z"
        fill="black" />
    <path
        d="M18.4723 14.9828L15.75 17.7051L14.5128 16.4675C14.4467 16.4037 14.3583 16.3685 14.2666 16.3693C14.1748 16.3701 14.087 16.4069 14.0221 16.4718C13.9572 16.5367 13.9204 16.6244 13.9196 16.7162C13.9188 16.808 13.9541 16.8964 14.0179 16.9624L15.5026 18.4475C15.5682 18.5131 15.6572 18.5499 15.75 18.5499C15.8428 18.5499 15.9318 18.5131 15.9975 18.4475L18.9672 15.4777C19.031 15.4117 19.0662 15.3233 19.0654 15.2315C19.0646 15.1397 19.0278 15.052 18.9629 14.9871C18.898 14.9222 18.8103 14.8854 18.7185 14.8846C18.6267 14.8838 18.5383 14.919 18.4723 14.9828Z"
        fill="black" />
</svg>
