<svg width="100" height="100" viewBox="0 0 100 100" fill="none" xmlns="http://www.w3.org/2000/svg">
<path d="M7.40741 68.3333H13.6111C12.8158 70.3276 12.7505 72.4986 13.425 74.5286C14.0994 76.5586 15.4781 78.341 17.3593 79.615C14.4026 80.7887 11.8882 82.7098 10.1215 85.1451C8.35487 87.5804 7.41199 90.425 7.40741 93.3333V96.6667C7.40741 97.5507 7.79762 98.3986 8.4922 99.0237C9.18678 99.6488 10.1288 100 11.1111 100H88.8889C89.8712 100 90.8132 99.6488 91.5078 99.0237C92.2024 98.3986 92.5926 97.5507 92.5926 96.6667V93.3333C92.6014 90.4225 91.6644 87.5729 89.8968 85.1352C88.1293 82.6975 85.6084 80.7782 82.6444 79.6133C84.5243 78.3389 85.9019 76.5565 86.5756 74.5269C87.2493 72.4974 87.1839 70.327 86.3889 68.3333H92.5926C94.5572 68.3333 96.4413 67.631 97.8304 66.3807C99.2196 65.1305 100 63.4348 100 61.6667V10C100 8.23189 99.2196 6.5362 97.8304 5.28595C96.4413 4.03571 94.5572 3.33333 92.5926 3.33333H85.1852V1.66667C85.1852 1.22464 84.9901 0.800716 84.6428 0.488155C84.2955 0.175595 83.8245 0 83.3333 0C82.8422 0 82.3712 0.175595 82.0239 0.488155C81.6766 0.800716 81.4815 1.22464 81.4815 1.66667V3.33333H68.5185V1.66667C68.5185 1.22464 68.3234 0.800716 67.9761 0.488155C67.6288 0.175595 67.1578 0 66.6667 0C66.1755 0 65.7045 0.175595 65.3572 0.488155C65.0099 0.800716 64.8148 1.22464 64.8148 1.66667V3.33333H51.8519V1.66667C51.8519 1.22464 51.6567 0.800716 51.3095 0.488155C50.9622 0.175595 50.4911 0 50 0C49.5089 0 49.0378 0.175595 48.6905 0.488155C48.3433 0.800716 48.1481 1.22464 48.1481 1.66667V3.33333H35.1852V1.66667C35.1852 1.22464 34.9901 0.800716 34.6428 0.488155C34.2955 0.175595 33.8245 0 33.3333 0C32.8422 0 32.3712 0.175595 32.0239 0.488155C31.6766 0.800716 31.4815 1.22464 31.4815 1.66667V3.33333H18.5185V1.66667C18.5185 1.22464 18.3234 0.800716 17.9761 0.488155C17.6288 0.175595 17.1578 0 16.6667 0C16.1755 0 15.7045 0.175595 15.3572 0.488155C15.0099 0.800716 14.8148 1.22464 14.8148 1.66667V3.33333H7.40741C5.44284 3.33333 3.55874 4.03571 2.16958 5.28595C0.780421 6.5362 0 8.23189 0 10V61.6667C0 63.4348 0.780421 65.1305 2.16958 66.3807C3.55874 67.631 5.44284 68.3333 7.40741 68.3333ZM16.6667 71.6667C16.6667 70.3481 17.1011 69.0592 17.915 67.9629C18.729 66.8665 19.8859 66.0121 21.2394 65.5075C22.5929 65.0029 24.0823 64.8709 25.5192 65.1281C26.9561 65.3853 28.276 66.0203 29.3119 66.9526C30.3478 67.885 31.0533 69.0729 31.3391 70.3661C31.625 71.6593 31.4783 72.9997 30.9176 74.2179C30.357 75.4361 29.4075 76.4772 28.1894 77.2098C26.9713 77.9423 25.5391 78.3333 24.0741 78.3333C22.1095 78.3333 20.2254 77.631 18.8362 76.3807C17.4471 75.1305 16.6667 73.4348 16.6667 71.6667ZM69.2111 79.615C67.9377 80.121 66.7395 80.7683 65.6444 81.5417C64.8722 79.6436 63.6838 77.9047 62.1497 76.4285C60.6157 74.9522 58.7674 73.7687 56.7148 72.9483C58.4355 71.7701 59.7379 70.1665 60.463 68.3333H65.463C64.6676 70.3276 64.6024 72.4986 65.2768 74.5286C65.9513 76.5586 67.33 78.341 69.2111 79.615ZM37.037 96.6667V86.6667C37.037 83.5725 38.4028 80.605 40.8338 78.4171C43.2648 76.2292 46.562 75 50 75C53.438 75 56.7352 76.2292 59.1662 78.4171C61.5972 80.605 62.963 83.5725 62.963 86.6667V96.6667H37.037ZM50 71.6667C48.535 71.6667 47.1028 71.2757 45.8847 70.5431C44.6665 69.8106 43.7171 68.7694 43.1564 67.5512C42.5958 66.333 42.4491 64.9926 42.7349 63.6994C43.0207 62.4062 43.7262 61.2183 44.7622 60.286C45.7981 59.3536 47.118 58.7187 48.5549 58.4614C49.9918 58.2042 51.4812 58.3362 52.8347 58.8408C54.1882 59.3454 55.3451 60.1999 56.159 61.2962C56.973 62.3925 57.4074 63.6815 57.4074 65C57.4074 66.7681 56.627 68.4638 55.2378 69.714C53.8487 70.9643 51.9646 71.6667 50 71.6667ZM43.2852 72.9483C41.2333 73.7678 39.3856 74.9504 37.8522 76.4259C36.3187 77.9013 35.1308 79.6394 34.3593 81.5367C33.2638 80.7646 32.0657 80.1186 30.7926 79.6133C32.6725 78.3389 34.05 76.5565 34.7237 74.5269C35.3975 72.4974 35.332 70.327 34.537 68.3333H39.537C40.2621 70.1665 41.5645 71.7701 43.2852 72.9483ZM11.1111 96.6667V93.3333C11.1087 91.0245 11.8676 88.767 13.2916 86.8465C14.7156 84.926 16.7407 83.429 19.1105 82.5449C21.4804 81.6609 24.0884 81.4296 26.6044 81.8802C29.1204 82.3309 31.4313 83.4433 33.2444 85.0767C33.3037 85.13 33.3556 85.1883 33.413 85.2433C33.3621 85.7164 33.3355 86.1914 33.3333 86.6667V96.6667H11.1111ZM85.0926 85.0733C86.2976 86.158 87.2532 87.4458 87.9046 88.8631C88.556 90.2805 88.8905 91.7995 88.8889 93.3333V96.6667H66.6667V86.6667C66.6667 86.1933 66.6352 85.725 66.587 85.2633C67.7788 84.1425 69.2071 83.2472 70.7883 82.6296C72.3696 82.0121 74.0719 81.685 75.7954 81.6673C77.519 81.6496 79.2291 81.9417 80.8256 82.5266C82.4221 83.1115 83.8728 83.9773 85.0926 85.0733ZM75.9259 78.3333C74.4609 78.3333 73.0287 77.9423 71.8106 77.2098C70.5924 76.4772 69.643 75.4361 69.0824 74.2179C68.5217 72.9997 68.375 71.6593 68.6609 70.3661C68.9467 69.0729 69.6522 67.885 70.6881 66.9526C71.724 66.0203 73.0439 65.3853 74.4808 65.1281C75.9177 64.8709 77.4071 65.0029 78.7606 65.5075C80.1141 66.0121 81.271 66.8665 82.085 67.9629C82.8989 69.0592 83.3333 70.3481 83.3333 71.6667C83.3333 73.4348 82.5529 75.1305 81.1637 76.3807C79.7746 77.631 77.8905 78.3333 75.9259 78.3333ZM92.5926 65H84.1852C83.1475 63.9516 81.8752 63.1127 80.4517 62.5382C79.0283 61.9637 77.4859 61.6667 75.9259 61.6667C74.3659 61.6667 72.8235 61.9637 71.4001 62.5382C69.9767 63.1127 68.7043 63.9516 67.6667 65H61.1111C61.1111 62.3478 59.9405 59.8043 57.8567 57.9289C55.773 56.0536 52.9468 55 50 55C47.0532 55 44.227 56.0536 42.1433 57.9289C40.0595 59.8043 38.8889 62.3478 38.8889 65H32.3333C31.2957 63.9516 30.0233 63.1127 28.5999 62.5382C27.1764 61.9637 25.6341 61.6667 24.0741 61.6667C22.5141 61.6667 20.9717 61.9637 19.5483 62.5382C18.1248 63.1127 16.8525 63.9516 15.8148 65H7.40741C6.42512 65 5.48307 64.6488 4.78849 64.0237C4.09391 63.3986 3.7037 62.5507 3.7037 61.6667V16.6667H96.2963V61.6667C96.2963 62.5507 95.9061 63.3986 95.2115 64.0237C94.5169 64.6488 93.5749 65 92.5926 65ZM7.40741 6.66667H14.8148V8.33333C14.8148 8.77536 15.0099 9.19928 15.3572 9.51184C15.7045 9.8244 16.1755 10 16.6667 10C17.1578 10 17.6288 9.8244 17.9761 9.51184C18.3234 9.19928 18.5185 8.77536 18.5185 8.33333V6.66667H31.4815V8.33333C31.4815 8.77536 31.6766 9.19928 32.0239 9.51184C32.3712 9.8244 32.8422 10 33.3333 10C33.8245 10 34.2955 9.8244 34.6428 9.51184C34.9901 9.19928 35.1852 8.77536 35.1852 8.33333V6.66667H48.1481V8.33333C48.1481 8.77536 48.3433 9.19928 48.6905 9.51184C49.0378 9.8244 49.5089 10 50 10C50.4911 10 50.9622 9.8244 51.3095 9.51184C51.6567 9.19928 51.8519 8.77536 51.8519 8.33333V6.66667H64.8148V8.33333C64.8148 8.77536 65.0099 9.19928 65.3572 9.51184C65.7045 9.8244 66.1755 10 66.6667 10C67.1578 10 67.6288 9.8244 67.9761 9.51184C68.3234 9.19928 68.5185 8.77536 68.5185 8.33333V6.66667H81.4815V8.33333C81.4815 8.77536 81.6766 9.19928 82.0239 9.51184C82.3712 9.8244 82.8422 10 83.3333 10C83.8245 10 84.2955 9.8244 84.6428 9.51184C84.9901 9.19928 85.1852 8.77536 85.1852 8.33333V6.66667H92.5926C93.5749 6.66667 94.5169 7.01786 95.2115 7.64298C95.9061 8.2681 96.2963 9.11594 96.2963 10V13.3333H3.7037V10C3.7037 9.11594 4.09391 8.2681 4.78849 7.64298C5.48307 7.01786 6.42512 6.66667 7.40741 6.66667Z" fill="white"/>
<path d="M63.4037 29.7967L57.2222 28.3333L53.2685 23.195C52.9018 22.7229 52.414 22.3374 51.8464 22.0713C51.2789 21.8051 50.6483 21.6661 50.0083 21.6661C49.3683 21.6661 48.7378 21.8051 48.1702 22.0713C47.6026 22.3374 47.1148 22.7229 46.7481 23.195L42.7778 28.3333L36.5889 29.7983C35.8759 29.9629 35.2211 30.2878 34.686 30.7426C34.1509 31.1974 33.7529 31.7671 33.5296 32.3983C33.3079 33.018 33.2652 33.6782 33.4055 34.3168C33.5458 34.9554 33.8645 35.5513 34.3315 36.0483L38.2685 40.2817L37.963 46.3517C37.9344 46.9223 38.0626 47.4905 38.3362 48.0059C38.6098 48.5213 39.0203 48.9681 39.5315 49.3067C40.055 49.6556 40.6661 49.8827 41.3106 49.9679C41.9551 50.0531 42.613 49.9937 43.2259 49.795L50 47.6117L56.7796 49.795C57.3926 49.9933 58.0504 50.0524 58.6948 49.9672C59.3392 49.882 59.9503 49.6552 60.4741 49.3067C60.985 48.9678 61.395 48.5206 61.6676 48.0048C61.9403 47.489 62.0672 46.9206 62.037 46.35L61.7185 40.28L65.6537 36.0467C66.121 35.5498 66.44 34.9539 66.5806 34.3153C66.7212 33.6767 66.6788 33.0164 66.4574 32.3967C66.2346 31.7661 65.8375 31.1967 65.3034 30.742C64.7693 30.2872 64.1156 29.962 63.4037 29.7967ZM62.8204 33.9083L58.4204 38.64C58.1215 38.9605 57.9675 39.3704 57.9889 39.7883L58.2722 46.6217C58.2371 46.6439 58.1966 46.6582 58.1541 46.6634C58.1115 46.6687 58.0682 46.6646 58.0278 46.6517L50.6204 44.2667C50.2171 44.1356 49.7755 44.1356 49.3722 44.2667L41.9648 46.6517C41.8555 46.685 41.7704 46.6517 41.6481 46.5017L42.0018 39.7817C42.0223 39.3641 41.8692 38.9547 41.5722 38.6333L37.1704 33.9C37.1034 33.8335 37.0576 33.7519 37.0377 33.664C37.0178 33.576 37.0246 33.4848 37.0574 33.4C37.0915 33.3041 37.1531 33.218 37.236 33.1504C37.3189 33.0828 37.4202 33.0361 37.5296 33.015L44.3815 31.3917C44.8089 31.2889 45.1818 31.0526 45.4333 30.725L49.7759 25.0783C49.7973 25.044 49.8285 25.0154 49.8663 24.9955C49.904 24.9756 49.947 24.9651 49.9907 24.9651C50.0345 24.9651 50.0775 24.9756 50.1152 24.9955C50.153 25.0154 50.1841 25.044 50.2055 25.0783L54.55 30.7233C54.8004 31.0512 55.1728 31.2877 55.6 31.39L62.4518 33.0133C62.5615 33.0345 62.6629 33.0815 62.7459 33.1494C62.8288 33.2173 62.8903 33.3038 62.9241 33.4C62.9599 33.4852 62.9691 33.5776 62.9509 33.6672C62.9326 33.7568 62.8875 33.8401 62.8204 33.9083Z" fill="white"/>
</svg>
