<svg width="22" height="19" viewBox="0 0 22 19" fill="none" xmlns="http://www.w3.org/2000/svg">
<path d="M14.775 9.97499L13.65 8.84999C13.8 8.01665 13.5627 7.27099 12.938 6.61299C12.3127 5.95432 11.55 5.69999 10.65 5.84999L9.525 4.72499C9.75834 4.62499 9.99167 4.54999 10.225 4.49999C10.4583 4.44999 10.7167 4.42499 11 4.42499C12.1333 4.42499 13.0957 4.82099 13.887 5.61299C14.679 6.40432 15.075 7.36665 15.075 8.49999C15.075 8.78332 15.05 9.04565 15 9.28699C14.95 9.52899 14.875 9.75832 14.775 9.97499ZM17.95 13.075L16.85 12.05C17.4833 11.5667 18.046 11.0373 18.538 10.462C19.0293 9.88732 19.45 9.23332 19.8 8.49999C18.9667 6.81665 17.7707 5.47899 16.212 4.48699C14.654 3.49565 12.9167 2.99999 11 2.99999C10.5167 2.99999 10.0417 3.03332 9.575 3.09999C9.10834 3.16665 8.65 3.26665 8.2 3.39999L7.025 2.22499C7.65834 1.97499 8.30434 1.79165 8.963 1.67499C9.621 1.55832 10.3 1.49999 11 1.49999C13.35 1.49999 15.4667 2.14599 17.35 3.43799C19.2333 4.72932 20.6 6.41665 21.45 8.49999C21.0833 9.39999 20.6083 10.2373 20.025 11.012C19.4417 11.7873 18.75 12.475 17.95 13.075ZM18.75 18.875L14.725 14.85C14.2083 15.05 13.6377 15.2083 13.013 15.325C12.3877 15.4417 11.7167 15.5 11 15.5C8.65 15.5 6.53734 14.854 4.662 13.562C2.78734 12.2707 1.41667 10.5833 0.550003 8.49999C0.91667 7.61665 1.39167 6.79165 1.975 6.02499C2.55834 5.25832 3.2 4.59999 3.9 4.04999L1.125 1.24999L2.175 0.174988L19.825 17.825L18.75 18.875ZM4.95 5.09999C4.41667 5.51665 3.90434 6.02099 3.413 6.61299C2.921 7.20432 2.51667 7.83332 2.2 8.49999C3.03334 10.1833 4.229 11.5207 5.787 12.512C7.34567 13.504 9.08334 14 11 14C11.45 14 11.9 13.9623 12.35 13.887C12.8 13.8123 13.1833 13.7333 13.5 13.65L12.25 12.35C12.0667 12.4167 11.8667 12.4707 11.65 12.512C11.4333 12.554 11.2167 12.575 11 12.575C9.86667 12.575 8.90434 12.179 8.113 11.387C7.321 10.5957 6.925 9.63332 6.925 8.49999C6.925 8.29999 6.946 8.08732 6.988 7.86199C7.02934 7.63732 7.08334 7.43332 7.15 7.24999L4.95 5.09999Z" fill="#0666EB"/>
</svg>
