<svg width="22" height="22" viewBox="0 0 22 22" fill="none" xmlns="http://www.w3.org/2000/svg">
<path d="M4.23333 17.3875C5.225 16.6875 6.275 16.1287 7.38333 15.711C8.49167 15.2926 9.69722 15.0833 11 15.0833C12.3028 15.0833 13.5083 15.2926 14.6167 15.711C15.725 16.1287 16.775 16.6875 17.7667 17.3875C18.5444 16.5903 19.1667 15.6519 19.6333 14.5723C20.1 13.4936 20.3333 12.3028 20.3333 11C20.3333 8.41389 19.4245 6.21161 17.6068 4.39317C15.7884 2.5755 13.5861 1.66667 11 1.66667C8.41389 1.66667 6.212 2.5755 4.39433 4.39317C2.57589 6.21161 1.66667 8.41389 1.66667 11C1.66667 12.3028 1.9 13.4936 2.36667 14.5723C2.83333 15.6519 3.45556 16.5903 4.23333 17.3875ZM11 11.5833C10.0083 11.5833 9.17728 11.2477 8.50683 10.5765C7.83561 9.90606 7.5 9.075 7.5 8.08333C7.5 7.09167 7.83561 6.26022 8.50683 5.589C9.17728 4.91856 10.0083 4.58333 11 4.58333C11.9917 4.58333 12.8227 4.91856 13.4932 5.589C14.1644 6.26022 14.5 7.09167 14.5 8.08333C14.5 9.075 14.1644 9.90606 13.4932 10.5765C12.8227 11.2477 11.9917 11.5833 11 11.5833ZM11 21.5C9.54167 21.5 8.17083 21.2278 6.8875 20.6833C5.60417 20.1389 4.49117 19.3953 3.5485 18.4527C2.60506 17.5092 1.86111 16.3958 1.31667 15.1125C0.772222 13.8292 0.5 12.4583 0.5 11C0.5 9.54167 0.772222 8.17083 1.31667 6.8875C1.86111 5.60417 2.60506 4.49078 3.5485 3.54733C4.49117 2.60467 5.60417 1.86111 6.8875 1.31667C8.17083 0.772222 9.54167 0.5 11 0.5C12.4583 0.5 13.8292 0.772222 15.1125 1.31667C16.3958 1.86111 17.5092 2.60467 18.4527 3.54733C19.3953 4.49078 20.1389 5.60417 20.6833 6.8875C21.2278 8.17083 21.5 9.54167 21.5 11C21.5 12.4583 21.2278 13.8292 20.6833 15.1125C20.1389 16.3958 19.3953 17.5092 18.4527 18.4527C17.5092 19.3953 16.3958 20.1389 15.1125 20.6833C13.8292 21.2278 12.4583 21.5 11 21.5ZM11 20.3333C12.0694 20.3333 13.1245 20.1436 14.1652 19.764C15.2051 19.3852 16.1042 18.875 16.8625 18.2333C16.1042 17.6111 15.2292 17.125 14.2375 16.775C13.2458 16.425 12.1667 16.25 11 16.25C9.83333 16.25 8.7495 16.425 7.7485 16.775C6.74672 17.125 5.87639 17.6111 5.1375 18.2333C5.89583 18.875 6.79494 19.3852 7.83483 19.764C8.8755 20.1436 9.93056 20.3333 11 20.3333ZM11 10.4167C11.6611 10.4167 12.2153 10.1931 12.6625 9.74583C13.1097 9.29861 13.3333 8.74444 13.3333 8.08333C13.3333 7.42222 13.1097 6.86806 12.6625 6.42083C12.2153 5.97361 11.6611 5.75 11 5.75C10.3389 5.75 9.78472 5.97361 9.3375 6.42083C8.89028 6.86806 8.66667 7.42222 8.66667 8.08333C8.66667 8.74444 8.89028 9.29861 9.3375 9.74583C9.78472 10.1931 10.3389 10.4167 11 10.4167Z" fill="#8695A7"/>
</svg>
