<svg width="16" height="16" viewBox="0 0 16 16" fill="none" xmlns="http://www.w3.org/2000/svg">
<path fill-rule="evenodd" clip-rule="evenodd" d="M12.5 7.15527C12.5 10.1928 10.0376 12.6553 7 12.6553C3.96243 12.6553 1.5 10.1928 1.5 7.15527C1.5 4.11771 3.96243 1.65527 7 1.65527C10.0376 1.65527 12.5 4.11771 12.5 7.15527ZM11.436 12.5705C10.2284 13.5609 8.6836 14.1553 7 14.1553C3.13401 14.1553 0 11.0213 0 7.15527C0 3.28928 3.13401 0.155273 7 0.155273C10.866 0.155273 14 3.28928 14 7.15527C14 8.80854 13.4269 10.3279 12.4684 11.5256C12.5118 11.5538 12.5529 11.5869 12.591 11.6249L15.5303 14.5643C15.8232 14.8572 15.8232 15.3321 15.5303 15.6249C15.2374 15.9178 14.7626 15.9178 14.4697 15.6249L11.5303 12.6856C11.4945 12.6498 11.463 12.6112 11.436 12.5705Z" fill="#9BABBC"/>
</svg>
